HIERARCHY
ROOT Bone
{
	OFFSET -0.030867 -4.437881 3.253119
	CHANNELS 6 Xposition Yposition Zposition Yrotation Xrotation Zrotation
	JOINT TailE
	{
		OFFSET 0.000000 0.080156 -1.935160
		CHANNELS 3 Yrotation Xrotation Zrotation
		JOINT TailD
		{
			OFFSET 0.000000 2.358044 0.291682
			CHANNELS 3 Yrotation Xrotation Zrotation
			JOINT TailC
			{
				OFFSET -0.000000 1.333671 1.916938
				CHANNELS 3 Yrotation Xrotation Zrotation
				JOINT TailB
				{
					OFFSET -0.000000 -1.255148 3.134412
					CHANNELS 3 Yrotation Xrotation Zrotation
					JOINT TailA
					{
						OFFSET 0.000000 -2.140733 1.650507
						CHANNELS 3 Yrotation Xrotation Zrotation
						JOINT Sting
						{
							OFFSET 0.000000 -1.968932 -0.918733
							CHANNELS 3 Yrotation Xrotation Zrotation
							End Site
							{
								OFFSET -0.000000 0.251272 -2.461170
							}
						}
					}
				}
			}
		}
	}
	JOINT BodyA
	{
		OFFSET 0.000000 0.080156 -1.935160
		CHANNELS 3 Yrotation Xrotation Zrotation
		JOINT BodyB
		{
			OFFSET -0.170525 -1.291478 -0.222229
			CHANNELS 3 Yrotation Xrotation Zrotation
			JOINT BodyC
			{
				OFFSET 0.007548 -1.372383 0.222229
				CHANNELS 3 Yrotation Xrotation Zrotation
				JOINT BodyD
				{
					OFFSET 0.069461 -1.290529 -0.000000
					CHANNELS 3 Yrotation Xrotation Zrotation
					JOINT Head
					{
						OFFSET -0.010688 -1.207692 -0.000000
						CHANNELS 3 Yrotation Xrotation Zrotation
						End Site
						{
							OFFSET -0.040078 -1.202348 0.000000
						}
					}
					JOINT ClawLA
					{
						OFFSET -0.010688 -1.207692 -0.000000
						CHANNELS 3 Yrotation Xrotation Zrotation
						JOINT ClawLB
						{
							OFFSET 6.819127 -3.131665 -0.000000
							CHANNELS 3 Yrotation Xrotation Zrotation
							JOINT Claw
							{
								OFFSET 2.824883 -3.240305 0.000000
								CHANNELS 3 Yrotation Xrotation Zrotation
								End Site
								{
									OFFSET 2.243288 -2.631018 0.000000
								}
							}
						}
					}
					JOINT ClawRA
					{
						OFFSET -0.010688 -1.207692 -0.000000
						CHANNELS 3 Yrotation Xrotation Zrotation
						JOINT ClawRB
						{
							OFFSET -6.379529 -3.154838 0.000000
							CHANNELS 3 Yrotation Xrotation Zrotation
							JOINT ClawR
							{
								OFFSET -2.858049 -3.223614 0.000000
								CHANNELS 3 Yrotation Xrotation Zrotation
								End Site
								{
									OFFSET -2.326319 -2.824816 0.000000
								}
							}
						}
					}
				}
				JOINT LegL1A
				{
					OFFSET 0.069461 -1.290529 -0.000000
					CHANNELS 3 Yrotation Xrotation Zrotation
					JOINT LegL1B
					{
						OFFSET 3.086028 -0.641253 -0.000000
						CHANNELS 3 Yrotation Xrotation Zrotation
						JOINT LegL1C
						{
							OFFSET 4.709358 -0.277021 -0.000000
							CHANNELS 3 Yrotation Xrotation Zrotation
							JOINT LegL1D
							{
								OFFSET 2.724041 1.939148 -0.000000
								CHANNELS 3 Yrotation Xrotation Zrotation
								JOINT LegL1E
								{
									OFFSET 2.008403 1.708297 0.000000
									CHANNELS 3 Yrotation Xrotation Zrotation
									End Site
									{
										OFFSET 1.269680 -0.438617 0.000000
									}
								}
							}
						}
					}
				}
				JOINT LegR1A
				{
					OFFSET 0.069461 -1.290529 -0.000000
					CHANNELS 3 Yrotation Xrotation Zrotation
					JOINT LegR1B
					{
						OFFSET -3.083751 -0.656827 0.000000
						CHANNELS 3 Yrotation Xrotation Zrotation
						JOINT LegR1C
						{
							OFFSET -4.678308 -0.396769 0.000000
							CHANNELS 3 Yrotation Xrotation Zrotation
							JOINT LegR1D
							{
								OFFSET -2.462370 1.923727 -0.000000
								CHANNELS 3 Yrotation Xrotation Zrotation
								JOINT LegR1E
								{
									OFFSET -2.077625 1.789066 0.000000
									CHANNELS 3 Yrotation Xrotation Zrotation
									End Site
									{
										OFFSET -1.385083 -0.403983 0.000000
									}
								}
							}
						}
					}
				}
			}
			JOINT LegL2A
			{
				OFFSET 0.007548 -1.372383 0.222229
				CHANNELS 3 Yrotation Xrotation Zrotation
				JOINT LegL2B
				{
					OFFSET 3.546783 -0.826963 0.000000
					CHANNELS 3 Yrotation Xrotation Zrotation
					JOINT LegL2C
					{
						OFFSET 4.852750 1.154237 -0.000001
						CHANNELS 3 Yrotation Xrotation Zrotation
						JOINT LegL2D
						{
							OFFSET 1.597293 2.641278 0.000000
							CHANNELS 3 Yrotation Xrotation Zrotation
							JOINT LegL2E
							{
								OFFSET 1.456213 1.970425 0.000000
								CHANNELS 3 Yrotation Xrotation Zrotation
								End Site
								{
									OFFSET 1.442703 -0.080150 0.000000
								}
							}
						}
					}
				}
			}
			JOINT LegR2A
			{
				OFFSET 0.007548 -1.372383 0.222229
				CHANNELS 3 Yrotation Xrotation Zrotation
				JOINT LegR2B
				{
					OFFSET -3.098261 -0.816307 -0.000001
					CHANNELS 3 Yrotation Xrotation Zrotation
					JOINT LegR2C
					{
						OFFSET -4.754818 1.178645 0.000000
						CHANNELS 3 Yrotation Xrotation Zrotation
						JOINT LegR2D
						{
							OFFSET -1.865813 2.423635 -0.000000
							CHANNELS 3 Yrotation Xrotation Zrotation
							JOINT LegR2E
							{
								OFFSET -1.500345 2.154342 0.000000
								CHANNELS 3 Yrotation Xrotation Zrotation
								End Site
								{
									OFFSET -1.442639 -0.134646 -0.000000
								}
							}
						}
					}
				}
			}
		}
		JOINT LegR3A
		{
			OFFSET -0.170525 -1.291478 -0.222229
			CHANNELS 3 Yrotation Xrotation Zrotation
			JOINT LegR3B
			{
				OFFSET -3.032154 -1.108673 0.000000
				CHANNELS 3 Yrotation Xrotation Zrotation
				JOINT LegR3C
				{
					OFFSET -4.180900 2.310848 0.000000
					CHANNELS 3 Yrotation Xrotation Zrotation
					JOINT LegR3D
					{
						OFFSET -1.175460 2.871864 0.000000
						CHANNELS 3 Yrotation Xrotation Zrotation
						JOINT LegR3E
						{
							OFFSET -1.001813 2.244061 -0.000000
							CHANNELS 3 Yrotation Xrotation Zrotation
							End Site
							{
								OFFSET -1.162103 0.440798 0.000000
							}
						}
					}
				}
			}
		}
		JOINT LegL3A
		{
			OFFSET -0.170525 -1.291478 -0.222229
			CHANNELS 3 Yrotation Xrotation Zrotation
			JOINT LegL3B
			{
				OFFSET 3.605357 -1.228765 0.000000
				CHANNELS 3 Yrotation Xrotation Zrotation
				JOINT LegL3C
				{
					OFFSET 4.167743 2.689717 0.000000
					CHANNELS 3 Yrotation Xrotation Zrotation
					JOINT LegL3D
					{
						OFFSET 1.024774 2.575782 0.000000
						CHANNELS 3 Yrotation Xrotation Zrotation
						JOINT LegL3E
						{
							OFFSET 0.692414 2.631176 0.000000
							CHANNELS 3 Yrotation Xrotation Zrotation
							End Site
							{
								OFFSET 1.384830 0.138483 0.000000
							}
						}
					}
				}
			}
		}
	}
	JOINT LegR4A
	{
		OFFSET 0.000000 0.080156 -1.935160
		CHANNELS 3 Yrotation Xrotation Zrotation
		JOINT LegR4B
		{
			OFFSET -3.312424 -0.975029 0.000001
			CHANNELS 3 Yrotation Xrotation Zrotation
			JOINT LegR4C
			{
				OFFSET -3.046576 3.406626 -0.000000
				CHANNELS 3 Yrotation Xrotation Zrotation
				JOINT LegR4D
				{
					OFFSET -0.166177 3.240449 0.000000
					CHANNELS 3 Yrotation Xrotation Zrotation
					JOINT LegR4E
					{
						OFFSET 0.055392 2.409564 0.000000
						CHANNELS 3 Yrotation Xrotation Zrotation
						End Site
						{
							OFFSET -1.107846 0.747796 0.000000
						}
					}
				}
			}
		}
	}
	JOINT LegL4A
	{
		OFFSET 0.000000 0.080156 -1.935160
		CHANNELS 3 Yrotation Xrotation Zrotation
		JOINT LegL4B
		{
			OFFSET 3.029229 -0.993715 0.000000
			CHANNELS 3 Yrotation Xrotation Zrotation
			JOINT LegL4C
			{
				OFFSET 3.157450 3.654308 0.000000
				CHANNELS 3 Yrotation Xrotation Zrotation
				JOINT LegL4D
				{
					OFFSET 0.192332 3.093340 0.000000
					CHANNELS 3 Yrotation Xrotation Zrotation
					JOINT LegL4E
					{
						OFFSET 0.000000 2.724704 0.000000
						CHANNELS 3 Yrotation Xrotation Zrotation
						End Site
						{
							OFFSET 0.993715 0.512885 0.000000
						}
					}
				}
			}
		}
	}
}
MOTION
Frames: 5
Frame Time: 0.041667
-0.030867 -4.437881 6.543655 -7.725666 -0.000000 0.000000 -1.606911 18.533969 -11.371709 -5.313610 -8.215171 3.051752 18.193611 -22.806085 -7.475463 24.433272 18.068743 -5.202731 -39.243419 -16.798410 15.015730 2.902608 13.919243 3.970413 0.000001 -0.000001 0.000001 -0.020236 -4.129713 0.561224 -0.105255 -9.375695 1.283493 -0.190242 12.548422 -1.730196 -0.000001 -0.000000 0.000000 14.880108 -7.773313 -2.411181 -7.070985 7.720544 -73.294856 0.002310 -0.016720 -0.763120 -9.275820 -10.848543 -1.549030 14.406247 10.604885 63.066763 -2.890059 6.833208 23.965384 -4.589406 0.000000 -0.000001 -10.176869 -73.076453 12.885656 80.238631 -1.436516 32.641064 -5.348521 12.699430 8.752550 -44.644060 44.943109 15.394188 7.423842 0.000000 -0.000002 11.371062 9.759780 -4.115105 -90.053456 -15.306398 46.908322 0.319537 -0.058837 -0.663301 -37.448513 46.535482 -40.468198 -4.589404 0.000002 -0.000001 -11.691825 0.000003 0.000002 79.224075 -35.042740 -40.704519 33.348088 4.847539 -6.517286 37.259543 -26.479400 22.790383 7.423844 0.000001 0.000003 15.702465 12.784156 0.016242 -100.929910 -66.555843 80.638723 -0.797307 -0.930426 0.718120 12.982517 13.519669 -5.886821 7.423843 -0.000000 0.000004 28.606849 -10.379813 12.632568 -52.756361 -53.204131 18.992159 0.318864 0.731524 -0.911405 0.538290 1.317056 -1.628147 -4.589405 0.000000 -0.000001 0.040459 0.276323 0.148188 -16.948483 -52.181170 31.566098 4.695558 -26.567185 -2.304636 70.269184 35.245269 71.485190 28.855097 -0.000000 0.000001 -10.745380 -5.125543 0.490423 12.783655 -67.596142 -6.628670 -0.299996 -1.268096 0.229665 -36.880737 19.363175 -42.647025 -4.589406 -0.000000 0.000004 2.256144 -14.641923 -0.869446 31.663777 -43.065856 -20.866399 -0.354256 0.446533 0.835195 32.234258 14.391694 21.137882 
-0.030867 -4.437881 6.543655 -7.725666 -0.000000 0.000000 -1.606911 18.533969 -11.371709 -5.245087 -7.846554 2.957430 18.247096 -22.202616 -7.413997 23.927307 16.940874 -5.943358 -38.127499 -14.724938 14.635465 2.902608 13.919242 3.970414 0.000001 -0.000001 0.000001 -0.020236 -4.129713 0.561224 -0.105255 -9.375695 1.283493 -0.190242 12.548422 -1.730196 -0.000001 -0.000000 0.000000 14.985305 -7.686193 -3.106425 -7.102848 7.726105 -71.851172 0.010416 -0.065843 -3.012692 -9.392305 -10.676439 -0.978136 14.418891 10.487832 60.950484 -2.806938 6.918447 25.181574 -4.589406 0.000000 -0.000001 -11.131614 -71.104680 13.450258 79.859528 -0.926685 33.533599 -3.664110 11.989056 3.999541 -45.269852 43.189694 13.404162 7.423842 0.000000 -0.000002 11.568043 7.089879 -3.016219 -89.542182 -16.079473 44.827935 1.265679 -0.210762 -2.620554 -37.647969 46.184240 -41.143810 -4.589404 0.000002 -0.000001 -11.691825 0.000003 0.000002 80.850650 -35.280150 -42.915458 31.755038 4.988724 -2.662691 32.204591 -29.527314 28.571426 7.423844 0.000001 0.000003 15.395193 14.441723 -0.525777 -100.131229 -66.741726 79.691738 -3.224988 -3.619102 2.920779 16.747817 19.749137 -8.565785 7.423843 -0.000000 0.000004 28.606849 -10.379813 12.632568 -53.572456 -53.783075 20.859241 1.189789 2.922506 -3.582143 1.921520 5.321700 -6.407614 -4.589405 0.000000 -0.000001 0.163808 1.089791 0.585984 -16.890236 -52.634852 31.417934 5.809074 -27.749201 -2.807433 70.506171 34.510910 69.009554 28.855097 -0.000000 0.000001 -10.910898 -3.778437 -0.059563 12.996506 -66.368190 -7.077975 -1.219793 -5.005919 0.949858 -36.853597 16.936608 -39.909714 -4.589406 -0.000000 0.000004 2.305960 -14.462963 -0.724560 33.039408 -43.619641 -23.487030 -1.362186 1.794303 3.284166 31.110217 13.798756 30.332177 
-0.030867 -4.437881 6.543655 -7.725666 -0.000000 0.000000 -1.606911 18.533969 -11.371709 -5.143554 -7.293396 2.816927 18.328227 -21.297437 -7.321144 23.201683 15.236979 -7.027637 -36.494688 -11.598323 14.148218 2.902608 13.919243 3.970414 0.000001 -0.000001 0.000001 -0.020236 -4.129713 0.561224 -0.105255 -9.375695 1.283493 -0.190242 12.548422 -1.730196 -0.000001 -0.000000 0.000000 15.141073 -7.553145 -4.148825 -7.150404 7.735908 -69.684329 0.026205 -0.138969 -6.390741 -9.563647 -10.416141 -0.122994 14.446168 10.312846 57.773633 -2.678813 7.043034 27.007128 -4.589406 0.000000 -0.000001 -12.312604 -68.139210 14.040945 79.182711 -0.089326 35.146490 -1.016934 11.179600 -3.195580 -46.026469 40.528908 10.563586 7.423842 0.000000 -0.000002 11.766555 3.070803 -1.388584 -88.640365 -17.292458 41.441483 2.695607 -0.378030 -5.563909 -37.997039 45.454041 -42.416762 -4.589404 0.000002 -0.000001 -11.691825 0.000003 0.000002 83.318855 -35.539482 -46.259300 29.376275 5.404373 3.138041 23.608380 -33.213192 38.226424 7.423844 0.000001 0.000003 14.898506 16.924398 -1.365507 -98.907389 -67.010610 78.245582 -7.097139 -7.481500 6.474443 22.261945 29.572547 -12.035483 7.423843 -0.000000 0.000004 28.606849 -10.379813 12.632568 -54.996926 -54.674196 23.836959 2.301544 6.295052 -7.555614 3.393065 11.596132 -13.572452 -4.589405 0.000000 -0.000001 0.360607 2.308465 1.246507 -16.798000 -53.315237 31.191285 7.526495 -29.506065 -3.622173 70.928905 33.424456 65.320029 28.855097 -0.000000 0.000001 -11.183205 -1.759649 -0.891323 13.291057 -64.522728 -7.716484 -2.713301 -10.608548 2.163588 -37.035970 13.287481 -35.846107 -4.589406 -0.000000 0.000004 2.381486 -14.194742 -0.507139 35.191190 -44.363359 -27.499286 -2.770157 3.899490 6.926255 29.218849 13.273915 44.453654 
-0.030867 -4.437881 6.543655 -7.725666 -0.000000 0.000000 -1.606911 18.533969 -11.371709 -5.033933 -6.686598 2.664192 18.418426 -20.305070 -7.218402 22.450463 13.354002 -8.181664 -34.752125 -8.155433 13.723053 2.902608 13.919243 3.970414 0.000001 -0.000001 0.000001 -0.020236 -4.129713 0.561224 -0.105255 -9.375695 1.283493 -0.190242 12.548422 -1.730196 -0.000001 -0.000000 0.000000 15.308978 -7.404061 -5.291003 -7.202107 7.748681 -67.308099 0.048446 -0.217974 -10.095205 -9.746795 -10.127867 0.812918 14.487395 10.122778 54.291261 -2.533762 7.174927 29.009763 -4.589406 0.000000 -0.000001 -13.373550 -64.882952 14.447520 78.236456 0.979189 37.443497 1.983731 10.672798 -11.109059 -46.631829 37.582361 7.619841 7.423842 0.000000 -0.000002 11.853061 -1.341887 0.379863 -87.399961 -18.721557 37.218230 4.271895 -0.476776 -8.795620 -38.453279 44.257413 -44.296826 -4.589404 0.000002 -0.000001 -11.691825 0.000003 0.000002 86.049134 -35.688039 -49.948320 26.823714 6.134919 9.485079 13.070210 -35.708369 49.891093 7.423844 0.000001 0.000003 14.301275 19.638404 -2.326735 -97.530395 -67.291229 76.625071 -11.667810 -11.422880 10.717860 28.280386 40.700377 -14.943718 7.423843 -0.000000 0.000004 28.606849 -10.379813 12.632568 -56.929203 -55.695937 27.430158 3.238785 10.080364 -11.879512 4.100294 18.655318 -21.508312 -4.589405 0.000000 -0.000001 0.592794 3.642055 1.976467 -16.689883 -54.061043 30.936382 9.479230 -31.406784 -4.603150 71.480327 32.261145 61.312026 28.855097 -0.000000 0.000001 -11.515323 0.449414 -1.814171 13.605508 -62.494626 -8.385933 -4.537357 -16.713473 3.705122 -37.532743 9.308471 -31.429860 -4.589406 -0.000000 0.000004 2.465402 -13.900966 -0.268620 37.658914 -45.051074 -31.996732 -4.162774 6.306873 10.874711 27.044691 13.255054 60.025567 
-0.030867 -4.437881 6.543655 -7.725666 -0.000000 0.000000 -1.606911 18.533969 -11.371709 -4.944361 -6.183178 2.538558 18.494230 -19.482276 -7.132435 21.861383 11.782393 -9.112682 -33.337754 -5.295378 13.452940 2.902608 13.919243 3.970414 0.000001 -0.000001 0.000001 -0.020236 -4.129713 0.561224 -0.105255 -9.375695 1.283493 -0.190242 12.548422 -1.730196 -0.000001 -0.000000 0.000000 15.445873 -7.277945 -6.237477 -7.244529 7.760864 -65.338368 0.070705 -0.282219 -13.163723 -9.894906 -9.886615 1.587667 14.530358 9.967413 51.407781 -2.410016 7.280400 30.670674 -4.589406 0.000000 -0.000001 -14.127361 -62.183299 14.652900 77.108867 2.127976 40.237334 4.487552 10.563606 -17.629236 -46.975890 35.126201 5.292959 7.423842 0.000000 -0.000002 11.821657 -4.994151 1.844038 -85.993796 -20.088679 32.883140 5.580243 -0.491148 -11.473990 -38.923206 42.596683 -46.647866 -4.589404 0.000002 -0.000001 -11.691825 0.000003 0.000002 88.318922 -35.702580 -53.012015 24.784410 6.946612 14.705160 3.924999 -36.372185 59.948482 7.423844 0.000001 0.000003 13.761086 21.879912 -3.159501 -96.361135 -67.512274 75.254048 -15.713036 -14.408865 14.506026 33.498898 49.930476 -16.430105 7.423843 -0.000000 0.000004 28.606849 -10.379813 12.632568 -59.084114 -56.639993 30.899120 3.769917 13.263993 -15.453412 3.902689 24.478158 -28.246666 -4.589405 0.000000 -0.000001 0.798516 4.745456 2.586748 -16.594360 -54.679329 30.719606 11.158034 -32.959645 -5.489966 72.002611 31.324474 58.021726 28.855097 -0.000000 0.000001 -11.817791 2.276215 -2.589425 13.915936 -60.807269 -8.950748 -6.228699 -21.716143 5.179321 -38.170956 6.056032 -27.783943 -4.589406 -0.000000 0.000004 2.535865 -13.657601 -0.070705 39.777277 -45.514314 -35.789792 -5.192146 8.367357 14.113212 25.326726 13.660049 72.662353 
